<svg xmlns="http://www.w3.org/2000/svg" width="1600" height="900" viewBox="0 0 1600 900" role="img" aria-labelledby="title desc">
  <title id="title">Research Runtime Scheduler V1.0</title>
  <desc id="desc">Research Center 3.0 operational control plane and scheduler architecture.</desc>
  <defs>
    <linearGradient id="bg" x1="0" y1="0" x2="1" y2="1">
      <stop offset="0" stop-color="#080b18"/>
      <stop offset="1" stop-color="#151536"/>
    </linearGradient>
    <radialGradient id="glow" cx="70%" cy="30%" r="60%">
      <stop offset="0" stop-color="#7c6cff" stop-opacity=".42"/>
      <stop offset="1" stop-color="#7c6cff" stop-opacity="0"/>
    </radialGradient>
    <pattern id="grid" width="56" height="56" patternUnits="userSpaceOnUse">
      <path d="M 56 0 L 0 0 0 56" fill="none" stroke="#a79eff" stroke-opacity=".1" stroke-width="1"/>
    </pattern>
  </defs>
  <rect width="1600" height="900" fill="url(#bg)"/>
  <rect width="1600" height="900" fill="url(#glow)"/>
  <rect width="1600" height="900" fill="url(#grid)"/>
  <g font-family="Inter, Arial, sans-serif">
    <text x="110" y="126" fill="#b9b1ff" font-size="24" font-weight="700" letter-spacing="5">RESEARCH CENTER 3.0 · RUNTIME CONTROL PLANE</text>
    <text x="110" y="246" fill="#ffffff" font-size="70" font-weight="800">Research Runtime</text>
    <text x="110" y="324" fill="#8b7cff" font-size="70" font-weight="800">Scheduler V1.0</text>
    <text x="110" y="380" fill="#aab5cc" font-size="25">Scheduled · Observable · Recorded · Verifiable</text>
  </g>
  <g transform="translate(110 500)" font-family="Inter, Arial, sans-serif">
    <g fill="#11172b" stroke="#8b7cff" stroke-opacity=".5">
      <rect x="0" y="0" width="166" height="92" rx="16"/>
      <rect x="188" y="0" width="166" height="92" rx="16"/>
      <rect x="376" y="0" width="166" height="92" rx="16"/>
      <rect x="564" y="0" width="166" height="92" rx="16"/>
      <rect x="752" y="0" width="166" height="92" rx="16"/>
      <rect x="940" y="0" width="166" height="92" rx="16"/>
      <rect x="1128" y="0" width="166" height="92" rx="16"/>
    </g>
    <g fill="#f4f7ff" font-size="19" font-weight="700" text-anchor="middle">
      <text x="83" y="53">ENGINE</text>
      <text x="271" y="53">QUEUE</text>
      <text x="459" y="53">KNOWLEDGE</text>
      <text x="647" y="53">ARCHITECTURE</text>
      <text x="835" y="53">PUBLICATION</text>
      <text x="1023" y="53">WEEKLY</text>
      <text x="1211" y="53">ACADEMIC</text>
    </g>
    <path d="M83 124 H1211" stroke="#8b7cff" stroke-width="3"/>
    <circle cx="83" cy="124" r="7" fill="#8b7cff"/><circle cx="271" cy="124" r="7" fill="#8b7cff"/>
    <circle cx="459" cy="124" r="7" fill="#8b7cff"/><circle cx="647" cy="124" r="7" fill="#8b7cff"/>
    <circle cx="835" cy="124" r="7" fill="#8b7cff"/><circle cx="1023" cy="124" r="7" fill="#8b7cff"/>
    <circle cx="1211" cy="124" r="7" fill="#8b7cff"/>
    <rect x="392" y="164" width="510" height="104" rx="18" fill="#0d1327" stroke="#5ee0ae" stroke-opacity=".55"/>
    <text x="647" y="209" fill="#5ee0ae" font-size="19" font-weight="700" text-anchor="middle">RUNTIME RECORD · SINGLE SOURCE OF TRUTH</text>
    <text x="647" y="242" fill="#aab5cc" font-size="17" text-anchor="middle">GitHub Commit → Commit Verify → Official Publication</text>
  </g>
  <text x="110" y="832" fill="#7f8ba1" font-family="ui-monospace, monospace" font-size="20">joinwell52-AI / Research Runtime Center</text>
</svg>
