<svg xmlns="http://www.w3.org/2000/svg" viewBox="0 0 800 1040"><defs><linearGradient id="b" x1="0" y1="0" x2="1" y2="1"><stop stop-color="#101638"/><stop offset=".55" stop-color="#4d43bd"/><stop offset="1" stop-color="#2ba9c5"/></linearGradient><linearGradient id="g" x1="0" y1="0" x2="1" y2="1"><stop stop-color="#b1a6ff"/><stop offset="1" stop-color="#7ce4ef"/></linearGradient></defs><rect width="800" height="1040" rx="44" fill="url(#b)"/><g opacity=".13" stroke="#fff"><path d="M0 130h800M0 260h800M0 390h800M0 520h800M0 650h800M0 780h800M0 910h800"/><path d="M130 0v1040M260 0v1040M390 0v1040M520 0v1040M650 0v1040"/></g><circle cx="660" cy="150" r="230" fill="none" stroke="#fff" opacity=".13"/><text x="62" y="76" fill="#cbd2ff" font-family="Arial" font-size="20" font-weight="700" letter-spacing="4">RESEARCH PAPER · A0.3</text><text x="62" y="340" fill="#fff" font-family="Arial" font-size="138" font-weight="800">TMPA</text><text x="62" y="455" fill="url(#g)" font-family="Arial" font-size="50" font-weight="800">GOVERNANCE ARCHITECTURE</text><text x="62" y="520" fill="#e0e5f8" font-family="Arial" font-size="36">for AI Work</text><text x="62" y="665" fill="#c6cce4" font-family="Arial" font-size="24">Profile · Event · Message</text><text x="62" y="708" fill="#c6cce4" font-family="Arial" font-size="24">Index · Knowledge</text><rect x="62" y="850" width="320" height="6" rx="3" fill="url(#g)"/><text x="62" y="920" fill="#d2d7eb" font-family="Arial" font-size="20">ZHU WEI · 2026</text><text x="62" y="958" fill="#9ba5c2" font-family="Arial" font-size="17">TMPA RESEARCH CENTER</text></svg>