<svg xmlns="http://www.w3.org/2000/svg" viewBox="0 0 1600 900" role="img" aria-labelledby="title desc">
  <title id="title">Scoped callback concurrency</title>
  <desc id="desc">An editorial visual of three independent luminous arcs orbiting separate centers without crossing into one global bottleneck, representing scoped ownership and concurrent progress.</desc>
  <defs>
    <linearGradient id="bg" x1="0" y1="0" x2="1" y2="1"><stop offset="0" stop-color="#071818"/><stop offset="1" stop-color="#18334a"/></linearGradient>
    <radialGradient id="g1"><stop offset="0" stop-color="#f4fff6"/><stop offset=".32" stop-color="#88f1c5"/><stop offset="1" stop-color="#2cb789" stop-opacity="0"/></radialGradient>
    <radialGradient id="g2"><stop offset="0" stop-color="#f1fbff"/><stop offset=".32" stop-color="#8ddcff"/><stop offset="1" stop-color="#399bc8" stop-opacity="0"/></radialGradient>
  </defs>
  <rect width="1600" height="900" fill="url(#bg)"/>
  <circle cx="420" cy="410" r="215" fill="url(#g1)" opacity=".55"/>
  <circle cx="820" cy="490" r="180" fill="url(#g2)" opacity=".48"/>
  <circle cx="1190" cy="350" r="195" fill="url(#g1)" opacity=".42"/>
  <path d="M255 470 C260 280 520 245 585 430 C620 525 548 620 438 623" fill="none" stroke="#bfffe2" stroke-opacity=".72" stroke-width="18" stroke-linecap="round"/>
  <path d="M690 445 C755 340 900 350 961 455 C1012 544 948 644 842 665" fill="none" stroke="#bcecff" stroke-opacity=".7" stroke-width="16" stroke-linecap="round"/>
  <path d="M1050 365 C1098 240 1275 225 1355 335 C1415 417 1377 523 1282 570" fill="none" stroke="#c7ffe5" stroke-opacity=".62" stroke-width="17" stroke-linecap="round"/>
  <circle cx="438" cy="623" r="28" fill="#e5fff0"/>
  <circle cx="842" cy="665" r="24" fill="#e4f8ff"/>
  <circle cx="1282" cy="570" r="26" fill="#e7fff2"/>
  <rect x="120" y="112" width="1360" height="676" rx="42" fill="none" stroke="#d9fff3" stroke-opacity=".12" stroke-width="2"/>
  <text x="120" y="790" font-family="Inter,Arial,sans-serif" font-size="22" letter-spacing="4" fill="#d9f9f0" opacity=".62">RESEARCH CENTER · SCOPED OWNERSHIP / CONCURRENCY</text>
</svg>
